<?xml version="1.0" encoding="UTF-8" standalone="no"?>
<!-- Generator: Adobe Illustrator 15.1.0, SVG Export Plug-In . SVG Version: 6.00 Build 0)  -->

<svg
   xmlns:dc="http://purl.org/dc/elements/1.1/"
   xmlns:cc="http://creativecommons.org/ns#"
   xmlns:rdf="http://www.w3.org/1999/02/22-rdf-syntax-ns#"
   xmlns:svg="http://www.w3.org/2000/svg"
   xmlns="http://www.w3.org/2000/svg"
   xmlns:sodipodi="http://sodipodi.sourceforge.net/DTD/sodipodi-0.dtd"
   xmlns:inkscape="http://www.inkscape.org/namespaces/inkscape"
   version="1.1"
   id="Layer_1"
   x="0px"
   y="0px"
   width="100px"
   height="100px"
   viewBox="0 0 100 100"
   enable-background="new 0 0 100 100"
   xml:space="preserve"
   inkscape:version="0.48.4 r9939"
   sodipodi:docname="21.svg"><metadata
     id="metadata3169"><rdf:RDF><cc:Work
         rdf:about=""><dc:format>image/svg+xml</dc:format><dc:type
           rdf:resource="http://purl.org/dc/dcmitype/StillImage" /></cc:Work></rdf:RDF></metadata><defs
     id="defs3167" /><sodipodi:namedview
     pagecolor="#ffffff"
     bordercolor="#666666"
     borderopacity="1"
     objecttolerance="10"
     gridtolerance="10"
     guidetolerance="10"
     inkscape:pageopacity="0"
     inkscape:pageshadow="2"
     inkscape:window-width="703"
     inkscape:window-height="480"
     id="namedview3165"
     showgrid="false"
     inkscape:zoom="3.5215625"
     inkscape:cx="2.2939036"
     inkscape:cy="50"
     inkscape:window-x="16"
     inkscape:window-y="94"
     inkscape:window-maximized="0"
     inkscape:current-layer="Layer_1" /><path
     clip-rule="evenodd"
     d="m 29.177,55.641 c -0.262,-0.646 -0.473,-1.315 -0.648,-2 h 43.47 c 0,0.684 -0.07,1.348 -0.181,2 H 29.177 z m 7.086,-19.998 c 2.294,-1.271 4.93,-1.999 7.738,-1.999 2.806,0 5.436,0.73 7.727,1.999 H 36.263 z m -8.121,11.999 c 0.085,-0.682 0.218,-1.347 0.387,-1.999 h 40.396 c 0.551,0.613 1.039,1.281 1.455,1.999 H 28.142 z m 1.035,-3.999 c 0.281,-0.693 0.613,-1.359 0.984,-2 h 27.682 c 0.04,0.068 0.084,0.135 0.123,0.205 0.664,-0.114 1.338,-0.205 2.033,-0.205 2.451,0 4.729,0.738 6.627,2 H 29.177 z m 2.347,-4 c 0.58,-0.723 1.225,-1.388 1.92,-2 h 21.122 c 0.69,0.61 1.326,1.28 1.903,2 H 31.524 z M 71.817,51.641 H 28.142 c -0.082,-0.656 -0.139,-1.32 -0.139,-1.999 h 43.298 c 0.227,0.643 0.401,1.311 0.516,1.999 z m -0.516,6 c -0.247,0.699 -0.555,1.367 -0.921,2 H 31.524 c -0.505,-0.629 -0.957,-1.299 -1.363,-2 h 41.14 z m -37.857,4 h 35.48 c -0.68,0.758 -1.447,1.434 -2.299,1.999 H 36.263 C 35.247,63.078 34.309,62.4 33.444,61.641 z"
     id="path3163"
     inkscape:connector-curvature="0"
     style="fill-rule:evenodd;fill:#ffffff;fill-opacity:1" /></svg>