<?xml version="1.0" encoding="UTF-8" standalone="no"?>
<!-- Generator: Adobe Illustrator 15.1.0, SVG Export Plug-In . SVG Version: 6.00 Build 0)  -->

<svg
   xmlns:dc="http://purl.org/dc/elements/1.1/"
   xmlns:cc="http://creativecommons.org/ns#"
   xmlns:rdf="http://www.w3.org/1999/02/22-rdf-syntax-ns#"
   xmlns:svg="http://www.w3.org/2000/svg"
   xmlns="http://www.w3.org/2000/svg"
   xmlns:sodipodi="http://sodipodi.sourceforge.net/DTD/sodipodi-0.dtd"
   xmlns:inkscape="http://www.inkscape.org/namespaces/inkscape"
   version="1.1"
   id="Layer_1"
   x="0px"
   y="0px"
   width="100px"
   height="100px"
   viewBox="0 0 100 100"
   enable-background="new 0 0 100 100"
   xml:space="preserve"
   inkscape:version="0.48.4 r9939"
   sodipodi:docname="8.svg"><metadata
     id="metadata3060"><rdf:RDF><cc:Work
         rdf:about=""><dc:format>image/svg+xml</dc:format><dc:type
           rdf:resource="http://purl.org/dc/dcmitype/StillImage" /></cc:Work></rdf:RDF></metadata><defs
     id="defs3058" /><sodipodi:namedview
     pagecolor="#ffffff"
     bordercolor="#666666"
     borderopacity="1"
     objecttolerance="10"
     gridtolerance="10"
     guidetolerance="10"
     inkscape:pageopacity="0"
     inkscape:pageshadow="2"
     inkscape:window-width="703"
     inkscape:window-height="480"
     id="namedview3056"
     showgrid="false"
     inkscape:zoom="3.5215625"
     inkscape:cx="2.2939036"
     inkscape:cy="50"
     inkscape:window-x="47"
     inkscape:window-y="93"
     inkscape:window-maximized="0"
     inkscape:current-layer="Layer_1" /><g
     id="g3050"
     style="fill:#ffffff;fill-opacity:1"><g
       id="g3052"
       style="fill:#ffffff;fill-opacity:1"><path
         fill-rule="evenodd"
         clip-rule="evenodd"
         d="M59.943,41.642c-0.696,0-1.369,0.092-2.033,0.205    c-2.736-4.892-7.961-8.203-13.965-8.203c-8.835,0-15.998,7.162-15.998,15.997c0,5.992,3.3,11.207,8.177,13.947    c0.276-1.262,0.892-2.465,1.873-3.445l0.057-0.057c-3.644-2.061-6.106-5.963-6.106-10.445c0-6.626,5.372-11.998,11.998-11.998    c5.691,0,10.433,3.974,11.665,9.29c1.25-0.81,2.733-1.291,4.333-1.291c4.418,0,7.999,3.581,7.999,7.999    c0,3.443-2.182,6.371-5.235,7.498c0.788,1.146,1.194,2.471,1.222,3.807c4.665-1.645,8.014-6.078,8.014-11.305    C71.942,47.014,66.57,41.642,59.943,41.642z M42.945,60.85l-2.121,2.121c-1.171,1.172-1.171,3.07,0,4.242    c1.172,1.172,3.071,1.172,4.242,0c1.172-1.172,1.172-3.07,0-4.242L42.945,60.85z M49.945,68.848l-2.121,2.121    c-1.172,1.172-1.172,3.072,0,4.242c1.171,1.172,3.07,1.172,4.241,0c1.172-1.17,1.172-3.07,0-4.242L49.945,68.848z M56.944,60.85    l-2.121,2.121c-1.172,1.172-1.172,3.07,0,4.242c1.171,1.172,3.07,1.172,4.242,0c1.171-1.172,1.171-3.07,0-4.242L56.944,60.85z"
         id="path3054"
         style="fill:#ffffff;fill-opacity:1" /></g></g></svg>