<?xml version="1.0" encoding="UTF-8" standalone="no"?>
<!-- Generator: Adobe Illustrator 15.1.0, SVG Export Plug-In . SVG Version: 6.00 Build 0)  -->

<svg
   xmlns:dc="http://purl.org/dc/elements/1.1/"
   xmlns:cc="http://creativecommons.org/ns#"
   xmlns:rdf="http://www.w3.org/1999/02/22-rdf-syntax-ns#"
   xmlns:svg="http://www.w3.org/2000/svg"
   xmlns="http://www.w3.org/2000/svg"
   xmlns:sodipodi="http://sodipodi.sourceforge.net/DTD/sodipodi-0.dtd"
   xmlns:inkscape="http://www.inkscape.org/namespaces/inkscape"
   version="1.1"
   id="Layer_1"
   x="0px"
   y="0px"
   width="100px"
   height="100px"
   viewBox="0 0 100 100"
   enable-background="new 0 0 100 100"
   xml:space="preserve"
   inkscape:version="0.48.4 r9939"
   sodipodi:docname="0.svg"><metadata
     id="metadata9"><rdf:RDF><cc:Work
         rdf:about=""><dc:format>image/svg+xml</dc:format><dc:type
           rdf:resource="http://purl.org/dc/dcmitype/StillImage" /></cc:Work></rdf:RDF></metadata><defs
     id="defs7" /><sodipodi:namedview
     pagecolor="#ffffff"
     bordercolor="#666666"
     borderopacity="1"
     objecttolerance="10"
     gridtolerance="10"
     guidetolerance="10"
     inkscape:pageopacity="0"
     inkscape:pageshadow="2"
     inkscape:window-width="703"
     inkscape:window-height="480"
     id="namedview5"
     showgrid="false"
     inkscape:zoom="2.36"
     inkscape:cx="50"
     inkscape:cy="50"
     inkscape:window-x="0"
     inkscape:window-y="0"
     inkscape:window-maximized="0"
     inkscape:current-layer="Layer_1" /><path
     fill-rule="evenodd"
     clip-rule="evenodd"
     d="M68.866,36.459H30.871c-1.104,0-2-0.896-2-1.999c0-1.104,0.896-2,2-2h37.995  c1.104,0,2,0.896,2,2C70.866,35.563,69.971,36.459,68.866,36.459z M32.871,40.459h29.996c1.104,0,2,0.896,2,2  c0,1.104-0.896,1.999-2,1.999H32.871c-1.104,0-2-0.896-2-1.999C30.871,41.354,31.767,40.459,32.871,40.459z M44.869,48.458h21.998  c1.104,0,1.999,0.896,1.999,1.999c0,1.104-0.895,2-1.999,2H44.869c-1.104,0-1.999-0.896-1.999-2  C42.87,49.354,43.765,48.458,44.869,48.458z M46.869,64.456h5.999c1.104,0,2,0.896,2,1.999c0,1.104-0.896,2-2,2h-5.999  c-1.104,0-2-0.896-2-2C44.869,65.352,45.765,64.456,46.869,64.456z M47.869,58.456c0-1.104,0.896-1.999,2-1.999h13.998  c1.104,0,2,0.896,2,1.999c0,1.104-0.896,2-2,2H49.869C48.765,60.456,47.869,59.561,47.869,58.456z"
     id="path3"
     style="fill:#ffffff;fill-opacity:1" /></svg>