<?xml version="1.0" encoding="UTF-8" standalone="no"?>
<!-- Generator: Adobe Illustrator 15.1.0, SVG Export Plug-In . SVG Version: 6.00 Build 0)  -->

<svg
   xmlns:dc="http://purl.org/dc/elements/1.1/"
   xmlns:cc="http://creativecommons.org/ns#"
   xmlns:rdf="http://www.w3.org/1999/02/22-rdf-syntax-ns#"
   xmlns:svg="http://www.w3.org/2000/svg"
   xmlns="http://www.w3.org/2000/svg"
   xmlns:sodipodi="http://sodipodi.sourceforge.net/DTD/sodipodi-0.dtd"
   xmlns:inkscape="http://www.inkscape.org/namespaces/inkscape"
   version="1.1"
   id="Layer_1"
   x="0px"
   y="0px"
   width="100px"
   height="100px"
   viewBox="0 0 100 100"
   enable-background="new 0 0 100 100"
   xml:space="preserve"
   inkscape:version="0.48.4 r9939"
   sodipodi:docname="25.svg"><metadata
     id="metadata3205"><rdf:RDF><cc:Work
         rdf:about=""><dc:format>image/svg+xml</dc:format><dc:type
           rdf:resource="http://purl.org/dc/dcmitype/StillImage" /></cc:Work></rdf:RDF></metadata><defs
     id="defs3203" /><sodipodi:namedview
     pagecolor="#ffffff"
     bordercolor="#666666"
     borderopacity="1"
     objecttolerance="10"
     gridtolerance="10"
     guidetolerance="10"
     inkscape:pageopacity="0"
     inkscape:pageshadow="2"
     inkscape:window-width="703"
     inkscape:window-height="480"
     id="namedview3201"
     showgrid="false"
     inkscape:zoom="2.36"
     inkscape:cx="50"
     inkscape:cy="50"
     inkscape:window-x="13"
     inkscape:window-y="135"
     inkscape:window-maximized="0"
     inkscape:current-layer="Layer_1" /><path
     fill-rule="evenodd"
     clip-rule="evenodd"
     d="M50,67.997c-4.417,0-7.999-3.581-7.999-7.999c0-2.025,0.759-3.869,2-5.278V38.001  c0-3.313,2.687-5.999,5.999-5.999c3.313,0,6,2.686,6,5.999V54.72c1.24,1.409,1.999,3.253,1.999,5.278  C57.999,64.416,54.418,67.997,50,67.997z M52,56.553v-4.292V42v-3.999c0-1.104-0.896-2-2-2s-1.999,0.896-1.999,2V42v10.261v4.292  c-1.19,0.693-2,1.969-2,3.445c0,2.209,1.791,3.999,3.999,3.999c2.209,0,4-1.79,4-3.999C54,58.521,53.19,57.246,52,56.553z   M50,62.998c-1.656,0-2.999-1.344-2.999-3s1.343-3,2.999-3c1.657,0,3,1.344,3,3S51.657,62.998,50,62.998z"
     id="path3199"
     style="fill:#ffffff;fill-opacity:1" /></svg>