<?xml version="1.0" encoding="UTF-8" standalone="no"?>
<!-- Generator: Adobe Illustrator 15.1.0, SVG Export Plug-In . SVG Version: 6.00 Build 0)  -->

<svg
   xmlns:dc="http://purl.org/dc/elements/1.1/"
   xmlns:cc="http://creativecommons.org/ns#"
   xmlns:rdf="http://www.w3.org/1999/02/22-rdf-syntax-ns#"
   xmlns:svg="http://www.w3.org/2000/svg"
   xmlns="http://www.w3.org/2000/svg"
   xmlns:sodipodi="http://sodipodi.sourceforge.net/DTD/sodipodi-0.dtd"
   xmlns:inkscape="http://www.inkscape.org/namespaces/inkscape"
   version="1.1"
   id="Layer_1"
   x="0px"
   y="0px"
   width="100px"
   height="100px"
   viewBox="0 0 100 100"
   enable-background="new 0 0 100 100"
   xml:space="preserve"
   inkscape:version="0.48.4 r9939"
   sodipodi:docname="42.svg"><metadata
     id="metadata9"><rdf:RDF><cc:Work
         rdf:about=""><dc:format>image/svg+xml</dc:format><dc:type
           rdf:resource="http://purl.org/dc/dcmitype/StillImage" /></cc:Work></rdf:RDF></metadata><defs
     id="defs7" /><sodipodi:namedview
     pagecolor="#ffffff"
     bordercolor="#666666"
     borderopacity="1"
     objecttolerance="10"
     gridtolerance="10"
     guidetolerance="10"
     inkscape:pageopacity="0"
     inkscape:pageshadow="2"
     inkscape:window-width="703"
     inkscape:window-height="480"
     id="namedview5"
     showgrid="false"
     inkscape:zoom="2.8600334"
     inkscape:cx="50"
     inkscape:cy="61.537676"
     inkscape:window-x="424"
     inkscape:window-y="12"
     inkscape:window-maximized="0"
     inkscape:current-layer="Layer_1" /><path
     clip-rule="evenodd"
     d="m 69.817,46.759 0,0 c 1.369,1.949 2.18,4.319 2.18,6.881 0,5.223 -3.342,9.652 -7.998,11.303 l 0,-4.381 c 2.388,-1.385 3.999,-3.963 3.999,-6.922 0,-4.417 -3.581,-7.999 -7.999,-7.999 -1.601,0 -3.084,0.48 -4.334,1.291 -1.231,-5.317 -5.973,-9.291 -11.664,-9.291 -6.627,0 -11.998,5.373 -11.998,12 0,3.549 1.55,6.729 3.999,8.924 l 0,4.916 c -4.777,-2.768 -7.999,-7.922 -7.999,-13.84 0,-8.835 7.162,-15.999 15.998,-15.999 2.002,0 3.914,0.376 5.68,1.048 l 0,0 c 1.763302,0.616435 2.98056,1.615305 3.605,1.937 1.918,1.372 3.523,3.152 4.68,5.221 0.664,-0.113 1.336,-0.205 2.033,-0.205 2.617,0 5.033,0.848 7.005,2.271 l 0,0 M 42.001,57.641 c 1.104,0 2,0.896 2,2 0,1.105 -0.896,2 -2,2 -1.104,0 -2,-0.895 -2,-2 0,-1.104 0.895,-2 2,-2 z m 0,8 c 1.104,0 2,0.895 2,2 0,1.104 -0.896,1.998 -2,1.998 -1.104,0 -2,-0.895 -2,-1.998 0,-1.106 0.895,-2 2,-2 z m 7.999,-4 c 1.104,0 2,0.895 2,2 0,1.104 -0.896,2 -2,2 -1.104,0 -1.999,-0.896 -1.999,-2 0,-1.106 0.895,-2 1.999,-2 z m 0,7.998 c 1.104,0 2,0.896 2,2 0,1.105 -0.896,2 -2,2 -1.104,0 -1.999,-0.895 -1.999,-2 0,-1.104 0.895,-2 1.999,-2 z m 7.999,-11.998 c 1.104,0 2,0.896 2,2 0,1.105 -0.896,2 -2,2 -1.104,0 -2,-0.895 -2,-2 0,-1.104 0.896,-2 2,-2 z m 0,8 c 1.104,0 2,0.895 2,2 0,1.104 -0.896,1.998 -2,1.998 -1.104,0 -2,-0.895 -2,-1.998 0,-1.106 0.896,-2 2,-2 z"
     id="path3"
     inkscape:connector-curvature="0"
     style="fill-rule:evenodd;fill:#ffffff;fill-opacity:1"
     sodipodi:nodetypes="ccsccsscssccssccccsccssssssssssssssssssssssssssssss" /></svg>