/* XPM */
static char * todo2_xpm[] = {
"24 24 3 1",
" 	c None",
".	c #7733AA",
"+	c #FFFFFF",
"........................",
"........................",
"........................",
"........................",
"........................",
"........................",
"........................",
"........................",
"........++++++++........",
"........+++..+++........",
"........+++..+++........",
"........+++..+++........",
"........+++..+++........",
"........++++++++........",
"........+++..+++........",
"........++++++++........",
"........................",
"........................",
"........................",
"........................",
"........................",
"........................",
"........................",
"........................"};
