/* XPM */
static char * bat_xpm[] = {
"16 16 3 1",
" 	c None",
".	c #77AA33",
"+	c #FFFFFF",
"................",
"................",
"................",
"................",
".......++.......",
".....++++++.....",
".....+....+.....",
".....+.++.+.....",
".....+.++.+.....",
".....+.++.+.....",
".....+....+.....",
".....++++++.....",
"................",
"................",
"................",
"................"};
