#define sound_width 20
#define sound_height 20
static unsigned char sound_bits[] = {
   0x00, 0x00, 0x00, 0x00, 0x00, 0x00, 0x00, 0x00, 0x00, 0x00, 0x04, 0x00,
   0x00, 0x06, 0x00, 0x00, 0x27, 0x00, 0xe0, 0x47, 0x00, 0xe0, 0x87, 0x00,
   0xe0, 0xa7, 0x00, 0xe0, 0xa7, 0x00, 0xe0, 0xa7, 0x00, 0xe0, 0x87, 0x00,
   0xe0, 0x47, 0x00, 0x00, 0x27, 0x00, 0x00, 0x06, 0x00, 0x00, 0x04, 0x00,
   0x00, 0x00, 0x00, 0x00, 0x00, 0x00, 0x00, 0x00, 0x00, 0x00, 0x00, 0x00 };
