/* XPM */
static char * sound_xpm[] = {
"44 44 58 1",
" 	c #77AA33",
".	c #78A933",
"+	c #89B54E",
"@	c #DBE8C9",
"#	c #B8D395",
"$	c #9AC068",
"%	c #99BF66",
"&	c #F5F9F0",
"*	c #FFFFFF",
"=	c #78AB35",
"-	c #92BB5B",
";	c #F1F6EA",
">	c #AFCD87",
",	c #FDFEFC",
"'	c #CCDFB2",
")	c #B3D08D",
"!	c #94BC5E",
"~	c #F2F7EC",
"{	c #7CAD3B",
"]	c #E7F0DB",
"^	c #90B958",
"/	c #83B245",
"(	c #EBF3E1",
"_	c #D0E1B8",
":	c #DEEBCE",
"<	c #A8C87C",
"[	c #D5E5C1",
"}	c #E2EDD3",
"|	c #A3C675",
"1	c #D5E5C0",
"2	c #83B145",
"3	c #F1F6E9",
"4	c #88B44C",
"5	c #EDF4E4",
"6	c #A5C779",
"7	c #C8DCAC",
"8	c #80AF40",
"9	c #F4F8EE",
"0	c #82B143",
"a	c #DCE9CA",
"b	c #A3C575",
"c	c #A6C87A",
"d	c #D4E4BE",
"e	c #9DC26D",
"f	c #DDEACD",
"g	c #91BA5A",
"h	c #84B247",
"i	c #EDF4E5",
"j	c #9DC26C",
"k	c #CDE0B5",
"l	c #AECD86",
"m	c #B1CE89",
"n	c #9EC36E",
"o	c #81B042",
"p	c #96BD61",
"q	c #90BA59",
"r	c #B9D396",
"s	c #95BD60",
"                                            ",
"                                            ",
"                                            ",
"                                            ",
"                                            ",
"                                            ",
"                                            ",
"                                            ",
"             ..                             ",
"            ..                              ",
"           ..                               ",
"           .                                ",
"                                            ",
"                                            ",
"                                            ",
"                                            ",
"                    +@   #$                 ",
"                   %&*  =-;$                ",
"                  >,**  ')!~{               ",
"               ]****** ^/($_>               ",
"               ******* :!<[%}               ",
"               ******* |12345               ",
"               ******* 678909               ",
"               ******* abcdef               ",
"               ]****** ghijkl               ",
"                  >,**  'mn3o               ",
"                   %&*  =p3q                ",
"                    +@   rs                 ",
"                                            ",
"                                            ",
"                                            ",
"                                            ",
"                                            ",
"                                            ",
"                                            ",
"                                            ",
"                                            ",
"                                            ",
"                                            ",
"                                            ",
"                                            ",
"                                            ",
"                                            ",
"                                            "};
