/* XPM */
static char * todo_xpm[] = {
"16 16 3 1",
" 	c None",
".	c #7733AA",
"+	c #FFFFFF",
"................",
"................",
"................",
"................",
"....++++++++....",
"....+++..+++....",
"....+++..+++....",
"....+++..+++....",
"....+++..+++....",
"....++++++++....",
"....+++..+++....",
"....++++++++....",
"................",
"................",
"................",
"................"};
