/* XPM */
static char * spkrmute2_xpm[] = {
"24 24 9 1",
" 	c None",
".	c #CC2200",
"+	c #CA1F00",
"@	c #CC2000",
"#	c #FFFFFF",
"$	c #CB1F00",
"%	c #CB2000",
"&	c #CB2100",
"*	c #CC2100",
"........................",
"........................",
"........................",
"........................",
"........................",
"........................",
"........................",
"....................+@..",
"...........#..........@.",
"..........##..........$.",
"........####.#...#....%.",
"........####..#.#...&&..",
"........####...#....&*..",
"........####..#.#...&&..",
"..........##.#...#....*.",
"...........#..........&.",
"......................&.",
"....................&*..",
"....................&...",
"........................",
"........................",
"........................",
"........................",
"........................"};
