/* XPM */
static char * spkrmute36_xpm[] = {
"36 36 9 1",
" 	c #CC2200",
".	c #F15353",
"+	c #FBCACA",
"@	c #F36A6A",
"#	c #FEF0F0",
"$	c #FFFFFF",
"%	c #F68A8A",
"&	c #FFFCFC",
"*	c #FCDCDC",
"                                    ",
"                                    ",
"                                    ",
"                                    ",
"                                    ",
"                                    ",
"                                    ",
"                                    ",
"                                    ",
"                                    ",
"                                    ",
"                                    ",
"                .+                  ",
"               @#$                  ",
"              %&$$                  ",
"           *$$$$$$                  ",
"           $$$$$$$                  ",
"           $$$$$$$                  ",
"           $$$$$$$                  ",
"           $$$$$$$                  ",
"           *$$$$$$                  ",
"              %&$$                  ",
"               @#$                  ",
"                .+                  ",
"                                    ",
"                                    ",
"                                    ",
"                                    ",
"                                    ",
"                                    ",
"                                    ",
"                                    ",
"                                    ",
"                                    ",
"                                    ",
"                                    "};
