/* XPM */
static char * spkr36_xpm[] = {
"36 36 59 1",
" 	c #77AA33",
".	c #78A933",
"+	c #79A833",
"@	c #89B54E",
"#	c #DBE8C9",
"$	c #B8D395",
"%	c #9AC068",
"&	c #99BF66",
"*	c #F5F9F0",
"=	c #FFFFFF",
"-	c #78AB35",
";	c #92BB5B",
">	c #F1F6EA",
",	c #AFCD87",
"'	c #FDFEFC",
")	c #CCDFB2",
"!	c #B3D08D",
"~	c #94BC5E",
"{	c #F2F7EC",
"]	c #7CAD3B",
"^	c #E7F0DB",
"/	c #90B958",
"(	c #83B245",
"_	c #EBF3E1",
":	c #D0E1B8",
"<	c #DEEBCE",
"[	c #A8C87C",
"}	c #D5E5C1",
"|	c #E2EDD3",
"1	c #A3C675",
"2	c #D5E5C0",
"3	c #83B145",
"4	c #F1F6E9",
"5	c #88B44C",
"6	c #EDF4E4",
"7	c #A5C779",
"8	c #C8DCAC",
"9	c #80AF40",
"0	c #F4F8EE",
"a	c #82B143",
"b	c #DCE9CA",
"c	c #A3C575",
"d	c #A6C87A",
"e	c #D4E4BE",
"f	c #9DC26D",
"g	c #DDEACD",
"h	c #91BA5A",
"i	c #84B247",
"j	c #EDF4E5",
"k	c #9DC26C",
"l	c #CDE0B5",
"m	c #AECD86",
"n	c #B1CE89",
"o	c #9EC36E",
"p	c #81B042",
"q	c #96BD61",
"r	c #90BA59",
"s	c #B9D396",
"t	c #95BD60",
"            ..+.                    ",
"            ...                     ",
"           ...                      ",
"          ...                       ",
"         ..                         ",
"        ..                          ",
"       ..                           ",
"      ..                            ",
"     .                              ",
"    .                               ",
"   .                                ",
"                                    ",
"                @#   $%             ",
"               &*=  -;>%            ",
"              ,'==  )!~{]           ",
"           ^====== /(_%:,           ",
"           ======= <~[}&|           ",
"           ======= 123456           ",
"           ======= 7890a0           ",
"           ======= bcdefg           ",
"           ^====== hijklm           ",
"              ,'==  )no4p           ",
"               &*=  -q4r            ",
"                @#   st             ",
"                                    ",
"                                    ",
"                                    ",
"                                    ",
"                                    ",
"                                    ",
"                                    ",
"                                    ",
"                                    ",
"                                    ",
"                                    ",
"                                    "};
