/* XPM */
static char * bat2_xpm[] = {
"24 24 3 1",
" 	c None",
".	c #77AA33",
"+	c #FFFFFF",
"........................",
"........................",
"........................",
"........................",
"........................",
"........................",
"........................",
"........................",
"...........++...........",
".........++++++.........",
".........+....+.........",
".........+.++.+.........",
".........+.++.+.........",
".........+.++.+.........",
".........+....+.........",
".........++++++.........",
"........................",
"........................",
"........................",
"........................",
"........................",
"........................",
"........................",
"........................"};
