/* XPM */
static char * signal2_xpm[] = {
"24 24 5 1",
" 	c None",
".	c #77AA33",
"+	c #76A932",
"@	c #FFFFFF",
"#	c #77AA32",
"........................",
"........................",
"........................",
"........................",
"..++....................",
".+......................",
".+......................",
".+......................",
"..++..@@@@@....@........",
"..#+...@.@.....@........",
"........@....@.@........",
"........@....@.@........",
"........@..@.@.@........",
"...........@.@.@........",
"........@@.@.@.@........",
"........@@.@.@.@........",
"........................",
"........................",
"........................",
"........................",
"........................",
"........................",
"........................",
"........................"};
