/* XPM */
static char * spkrmute_xpm[] = {
"16 16 3 1",
" 	c None",
".	c #CC2200",
"+	c #FFFFFF",
"................",
"................",
"................",
"................",
".......+........",
"......++........",
"....++++.+...+..",
"....++++..+.+...",
"....++++...+....",
"....++++..+.+...",
"......++.+...+..",
".......+........",
"................",
"................",
"................",
"................"};
