/* XPM */
static char * work2_xpm[] = {
"24 24 3 1",
" 	c None",
".	c #3377AA",
"+	c #FFFFFF",
"........................",
"........................",
"........................",
"........................",
"........................",
"........................",
"........................",
"........................",
"........+++..+++........",
"........+++..+++........",
"........+++..+++........",
"........................",
"........................",
"........+++..+++........",
"........+++..+++........",
"........+++..+++........",
"........................",
"........................",
"........................",
"........................",
"........................",
"........................",
"........................",
"........................"};
