/* XPM */
static char * work_xpm[] = {
"16 16 3 1",
" 	c None",
".	c #3377AA",
"+	c #FFFFFF",
"................",
"................",
"................",
"................",
"....+++..+++....",
"....+++..+++....",
"....+++..+++....",
"................",
"................",
"....+++..+++....",
"....+++..+++....",
"....+++..+++....",
"................",
"................",
"................",
"................"};
