#define bat_width 20
#define bat_height 20
static unsigned char bat_bits[] = {
   0x00, 0x00, 0x00, 0x00, 0x00, 0x00, 0x00, 0x00, 0x00, 0x00, 0x00, 0x00,
   0xe0, 0x79, 0x00, 0xf0, 0xff, 0x00, 0xf8, 0xff, 0x01, 0xf8, 0xff, 0x01,
   0xf8, 0xff, 0x01, 0xf8, 0xff, 0x01, 0xf0, 0xff, 0x00, 0xf0, 0xff, 0x00,
   0xe0, 0x7f, 0x00, 0xc0, 0x3f, 0x00, 0x80, 0x1f, 0x00, 0x00, 0x0f, 0x00,
   0x00, 0x06, 0x00, 0x00, 0x00, 0x00, 0x00, 0x00, 0x00, 0x00, 0x00, 0x00 };
